<?xml version="1.0" encoding="UTF-8" standalone="no"?>
<!-- Creator: CorelDRAW 2021 (64-Bit) -->

<svg
   xml:space="preserve"
   width="2026"
   height="192.94905"
   version="1.1"
   style="clip-rule:evenodd;fill-rule:evenodd;image-rendering:optimizeQuality;shape-rendering:geometricPrecision;text-rendering:geometricPrecision"
   viewBox="0 0 2025.59 192.85907"
   id="svg31"
   xmlns="http://www.w3.org/2000/svg"
   xmlns:svg="http://www.w3.org/2000/svg">
 <defs
   id="defs4"><style
     type="text/css"
     id="style2">
   <![CDATA[
    .fil0 {fill:black}
    .fil1 {fill:white;fill-rule:nonzero}
   ]]>
  </style></defs>
 <g
   id="Capa_x0020_1"
   transform="translate(0,-0.02547137)">
  <metadata
   id="CorelCorpID_0Corel-Layer" />
  
  
  
  
  
  
  
  
  
  
  
  
  
  
  
  
  
  
  
  <g
   id="g990"><rect
     class="fil0"
     width="2025.59"
     height="192.91"
     id="rect7"
     style="fill:#000000"
     x="0"
     y="0" /><g
     id="g895"
     style="fill:#ffffff"><path
       class="fil1"
       d="m 1176.3,103.62 c 0.28,0 0.51,0.11 0.71,0.32 l 1.99,2.15 c -1.1,1.37 -2.45,2.41 -4.06,3.13 -1.6,0.73 -3.53,1.09 -5.78,1.09 -2.02,0 -3.82,-0.34 -5.43,-1.03 -1.6,-0.69 -2.98,-1.64 -4.12,-2.87 -1.13,-1.22 -2,-2.68 -2.61,-4.39 -0.6,-1.69 -0.91,-3.55 -0.91,-5.56 0,-2.04 0.34,-3.91 1.01,-5.6 0.68,-1.7 1.63,-3.15 2.85,-4.38 1.23,-1.22 2.69,-2.18 4.4,-2.86 1.71,-0.68 3.59,-1.02 5.65,-1.02 2.01,0 3.78,0.33 5.28,0.97 1.51,0.65 2.8,1.5 3.87,2.57 l -1.69,2.35 c -0.1,0.15 -0.22,0.28 -0.38,0.39 -0.15,0.11 -0.37,0.17 -0.65,0.17 -0.29,0 -0.58,-0.11 -0.88,-0.34 -0.3,-0.22 -0.68,-0.47 -1.14,-0.73 -0.46,-0.26 -1.05,-0.51 -1.75,-0.73 -0.71,-0.23 -1.61,-0.34 -2.7,-0.34 -1.27,0 -2.44,0.22 -3.51,0.67 -1.07,0.44 -1.99,1.08 -2.76,1.9 -0.76,0.82 -1.36,1.83 -1.8,3.01 -0.43,1.17 -0.65,2.5 -0.65,3.97 0,1.53 0.22,2.88 0.65,4.07 0.44,1.19 1.02,2.18 1.75,2.99 0.74,0.82 1.61,1.44 2.61,1.87 1,0.44 2.08,0.65 3.23,0.65 0.68,0 1.31,-0.04 1.86,-0.12 0.56,-0.07 1.07,-0.19 1.54,-0.35 0.47,-0.16 0.92,-0.37 1.33,-0.63 0.42,-0.25 0.83,-0.57 1.25,-0.95 0.12,-0.11 0.25,-0.2 0.39,-0.26 0.14,-0.07 0.29,-0.11 0.45,-0.11 z"
       id="path9"
       style="fill:#ffffff" /><path
       id="_1"
       class="fil1"
       d="m 1211.29,110.01 h -3.9 c -0.44,0 -0.8,-0.11 -1.08,-0.33 -0.28,-0.22 -0.49,-0.49 -0.61,-0.81 l -2.03,-5.53 h -11.23 l -2.02,5.53 c -0.1,0.29 -0.3,0.55 -0.59,0.79 -0.29,0.23 -0.66,0.35 -1.08,0.35 h -3.92 l 10.65,-27.11 h 5.16 z m -17.55,-10.22 h 8.64 l -3.3,-9.02 c -0.15,-0.39 -0.31,-0.87 -0.49,-1.41 -0.19,-0.55 -0.37,-1.14 -0.54,-1.77 -0.18,0.63 -0.35,1.23 -0.51,1.78 -0.17,0.55 -0.34,1.03 -0.5,1.44 z"
       style="fill:#ffffff" /><path
       id="_2"
       class="fil1"
       d="m 1223.94,99.4 v 10.59 h -5.04 V 82.86 h 8.27 c 1.85,0 3.43,0.2 4.75,0.58 1.32,0.38 2.4,0.91 3.25,1.6 0.84,0.69 1.46,1.51 1.85,2.47 0.4,0.96 0.59,2.01 0.59,3.16 0,0.92 -0.13,1.78 -0.4,2.59 -0.27,0.81 -0.66,1.55 -1.16,2.22 -0.51,0.66 -1.13,1.25 -1.88,1.74 -0.74,0.51 -1.59,0.9 -2.54,1.2 0.64,0.37 1.19,0.89 1.65,1.56 l 6.79,10.01 h -4.54 c -0.44,0 -0.81,-0.08 -1.11,-0.26 -0.31,-0.17 -0.57,-0.42 -0.79,-0.75 l -5.7,-8.68 c -0.21,-0.32 -0.44,-0.56 -0.7,-0.69 -0.25,-0.14 -0.63,-0.21 -1.13,-0.21 z m 0,-3.64 h 3.15 c 0.95,0 1.78,-0.12 2.49,-0.35 0.7,-0.24 1.29,-0.57 1.74,-0.99 0.46,-0.42 0.8,-0.91 1.02,-1.49 0.23,-0.57 0.34,-1.2 0.34,-1.89 0,-1.38 -0.45,-2.43 -1.36,-3.17 -0.9,-0.74 -2.29,-1.11 -4.15,-1.11 h -3.23 z"
       style="fill:#ffffff" /><polygon
       id="_3"
       class="fil1"
       points="1248.56,82.9 1253.62,82.9 1253.62,110.01 1248.56,110.01 "
       style="fill:#ffffff" /><path
       id="_4"
       class="fil1"
       d="m 1267,82.9 c 0.23,0 0.42,0.01 0.57,0.03 0.15,0.01 0.28,0.05 0.4,0.11 0.12,0.05 0.23,0.14 0.35,0.24 0.11,0.11 0.23,0.25 0.37,0.43 l 14.23,18.13 c -0.05,-0.44 -0.08,-0.87 -0.1,-1.29 -0.02,-0.42 -0.03,-0.81 -0.03,-1.17 V 82.9 h 4.45 v 27.11 h -2.61 c -0.4,0 -0.73,-0.06 -0.99,-0.19 -0.27,-0.12 -0.52,-0.34 -0.77,-0.67 l -14.18,-18.06 c 0.04,0.4 0.07,0.8 0.09,1.19 0.02,0.4 0.02,0.76 0.02,1.08 v 16.65 h -4.44 V 82.9 Z"
       style="fill:#ffffff" /><path
       id="_5"
       class="fil1"
       d="m 1309.41,99.47 v 10.54 h -5.04 V 99.47 l -9.88,-16.57 h 4.44 c 0.44,0 0.79,0.11 1.05,0.32 0.25,0.21 0.47,0.48 0.64,0.8 l 4.97,9.06 c 0.29,0.54 0.54,1.05 0.75,1.53 0.21,0.48 0.41,0.95 0.58,1.41 0.16,-0.47 0.35,-0.95 0.56,-1.43 0.2,-0.48 0.45,-0.98 0.73,-1.51 l 4.94,-9.06 c 0.13,-0.27 0.34,-0.53 0.61,-0.76 0.28,-0.24 0.63,-0.36 1.05,-0.36 h 4.47 z"
       style="fill:#ffffff" /><polygon
       id="_6"
       class="fil1"
       points="1331.63,86.91 1331.63,94.41 1341.1,94.41 1341.1,98.31 1331.63,98.31 1331.63,105.96 1343.65,105.96 1343.65,110.01 1326.55,110.01 1326.55,82.9 1343.65,82.9 1343.65,86.91 "
       style="fill:#ffffff" /><path
       id="_7"
       class="fil1"
       d="m 1355.31,82.9 c 0.23,0 0.41,0.01 0.56,0.03 0.15,0.01 0.29,0.05 0.41,0.11 0.12,0.05 0.23,0.14 0.34,0.24 0.12,0.11 0.24,0.25 0.38,0.43 l 14.23,18.13 c -0.05,-0.44 -0.08,-0.87 -0.1,-1.29 -0.02,-0.42 -0.03,-0.81 -0.03,-1.17 V 82.9 h 4.44 v 27.11 h -2.6 c -0.41,0 -0.74,-0.06 -1,-0.19 -0.26,-0.12 -0.52,-0.34 -0.77,-0.67 L 1357,91.09 c 0.04,0.4 0.07,0.8 0.08,1.19 0.02,0.4 0.03,0.76 0.03,1.08 v 16.65 h -4.44 V 82.9 Z"
       style="fill:#ffffff" /><path
       id="_8"
       class="fil1"
       d="m 1409.5,110.01 h -3.9 c -0.44,0 -0.8,-0.11 -1.08,-0.33 -0.28,-0.22 -0.49,-0.49 -0.61,-0.81 l -2.03,-5.53 h -11.23 l -2.02,5.53 c -0.1,0.29 -0.3,0.55 -0.59,0.79 -0.29,0.23 -0.66,0.35 -1.08,0.35 h -3.92 l 10.65,-27.11 h 5.16 z m -17.55,-10.22 h 8.64 l -3.3,-9.02 c -0.15,-0.39 -0.31,-0.87 -0.5,-1.41 -0.18,-0.55 -0.36,-1.14 -0.53,-1.77 -0.18,0.63 -0.35,1.23 -0.52,1.78 -0.16,0.55 -0.33,1.03 -0.49,1.44 z"
       style="fill:#ffffff" /><path
       class="fil1"
       d="m 598.49,87.85 c -0.14,0.28 -0.29,0.47 -0.47,0.58 -0.18,0.11 -0.4,0.17 -0.65,0.17 -0.25,0 -0.53,-0.1 -0.85,-0.29 -0.31,-0.2 -0.68,-0.41 -1.1,-0.65 -0.43,-0.23 -0.92,-0.45 -1.49,-0.65 -0.57,-0.19 -1.24,-0.29 -2.02,-0.29 -0.7,0 -1.3,0.09 -1.82,0.26 -0.52,0.16 -0.96,0.4 -1.32,0.7 -0.35,0.3 -0.62,0.66 -0.8,1.08 -0.17,0.42 -0.26,0.88 -0.26,1.38 0,0.63 0.18,1.16 0.54,1.59 0.35,0.42 0.82,0.78 1.41,1.08 0.59,0.3 1.26,0.57 2.01,0.81 0.75,0.24 1.52,0.49 2.3,0.76 0.78,0.26 1.54,0.58 2.29,0.93 0.75,0.36 1.42,0.81 2.01,1.35 0.59,0.55 1.06,1.22 1.42,2 0.35,0.78 0.53,1.74 0.53,2.87 0,1.22 -0.21,2.36 -0.63,3.43 -0.42,1.07 -1.03,2 -1.84,2.8 -0.8,0.79 -1.79,1.42 -2.95,1.87 -1.16,0.46 -2.49,0.68 -3.99,0.68 -0.87,0 -1.72,-0.08 -2.55,-0.25 -0.84,-0.17 -1.64,-0.41 -2.41,-0.72 -0.77,-0.31 -1.49,-0.69 -2.16,-1.13 -0.67,-0.43 -1.27,-0.92 -1.79,-1.46 l 1.46,-2.42 c 0.14,-0.17 0.31,-0.32 0.5,-0.44 0.2,-0.11 0.41,-0.18 0.65,-0.18 0.31,0 0.64,0.13 1.01,0.39 0.36,0.26 0.79,0.54 1.28,0.85 0.5,0.31 1.08,0.6 1.75,0.86 0.67,0.25 1.47,0.38 2.41,0.38 1.43,0 2.55,-0.35 3.33,-1.03 0.79,-0.68 1.18,-1.65 1.18,-2.93 0,-0.71 -0.17,-1.29 -0.53,-1.74 -0.35,-0.45 -0.83,-0.83 -1.42,-1.14 -0.58,-0.31 -1.25,-0.56 -2,-0.78 -0.75,-0.21 -1.51,-0.44 -2.29,-0.69 -0.78,-0.25 -1.54,-0.55 -2.29,-0.9 -0.75,-0.35 -1.42,-0.81 -2,-1.37 -0.59,-0.56 -1.06,-1.27 -1.42,-2.11 -0.35,-0.84 -0.53,-1.88 -0.53,-3.12 0,-0.99 0.2,-1.95 0.59,-2.89 0.39,-0.93 0.97,-1.76 1.72,-2.49 0.76,-0.72 1.69,-1.31 2.79,-1.74 1.1,-0.44 2.35,-0.66 3.77,-0.66 1.6,0 3.07,0.25 4.42,0.76 1.35,0.5 2.5,1.2 3.45,2.11 z"
       id="path19"
       style="fill:#ffffff" /><path
       id="_1_0"
       class="fil1"
       d="m 634.73,96.46 c 0,1.98 -0.33,3.82 -0.99,5.52 -0.66,1.69 -1.59,3.16 -2.79,4.39 -1.2,1.24 -2.65,2.21 -4.33,2.9 -1.69,0.69 -3.56,1.04 -5.61,1.04 -2.05,0 -3.92,-0.35 -5.61,-1.04 -1.7,-0.69 -3.15,-1.66 -4.35,-2.9 -1.21,-1.23 -2.15,-2.7 -2.81,-4.39 -0.66,-1.7 -0.99,-3.54 -0.99,-5.52 0,-1.99 0.33,-3.83 0.99,-5.53 0.66,-1.69 1.6,-3.16 2.81,-4.39 1.2,-1.24 2.65,-2.21 4.35,-2.9 1.69,-0.7 3.56,-1.04 5.61,-1.04 2.05,0 3.92,0.35 5.61,1.05 1.68,0.7 3.13,1.66 4.33,2.89 1.2,1.23 2.13,2.7 2.79,4.39 0.66,1.7 0.99,3.54 0.99,5.53 z m -5.17,0 c 0,-1.48 -0.19,-2.82 -0.59,-3.99 -0.39,-1.18 -0.96,-2.19 -1.7,-3.01 -0.74,-0.82 -1.63,-1.45 -2.69,-1.89 -1.05,-0.44 -2.25,-0.66 -3.57,-0.66 -1.33,0 -2.52,0.22 -3.58,0.66 -1.06,0.44 -1.96,1.07 -2.71,1.89 -0.74,0.82 -1.32,1.83 -1.72,3.01 -0.4,1.17 -0.6,2.51 -0.6,3.99 0,1.49 0.2,2.83 0.6,4 0.4,1.18 0.98,2.18 1.72,3 0.75,0.82 1.65,1.45 2.71,1.88 1.06,0.44 2.25,0.66 3.58,0.66 1.32,0 2.52,-0.22 3.57,-0.66 1.06,-0.43 1.95,-1.06 2.69,-1.88 0.74,-0.82 1.31,-1.82 1.7,-3 0.4,-1.17 0.59,-2.51 0.59,-4 z"
       style="fill:#ffffff" /><polygon
       id="_2_1"
       class="fil1"
       points="652.85,87.02 652.85,109.99 647.8,109.99 647.8,87.02 639.61,87.02 639.61,82.86 661,82.86 661,87.02 "
       style="fill:#ffffff" /><polygon
       id="_3_2"
       class="fil1"
       points="679.8,87.02 679.8,109.99 674.76,109.99 674.76,87.02 666.57,87.02 666.57,82.86 687.96,82.86 687.96,87.02 "
       style="fill:#ffffff" /><path
       id="_4_3"
       class="fil1"
       d="m 720.36,96.46 c 0,1.98 -0.33,3.82 -1,5.52 -0.66,1.69 -1.59,3.16 -2.79,4.39 -1.2,1.24 -2.64,2.21 -4.33,2.9 -1.69,0.69 -3.56,1.04 -5.61,1.04 -2.05,0 -3.92,-0.35 -5.61,-1.04 -1.69,-0.69 -3.14,-1.66 -4.35,-2.9 -1.2,-1.23 -2.14,-2.7 -2.81,-4.39 -0.66,-1.7 -0.99,-3.54 -0.99,-5.52 0,-1.99 0.33,-3.83 0.99,-5.53 0.67,-1.69 1.61,-3.16 2.81,-4.39 1.21,-1.24 2.66,-2.21 4.35,-2.9 1.69,-0.7 3.56,-1.04 5.61,-1.04 2.05,0 3.92,0.35 5.61,1.05 1.69,0.7 3.13,1.66 4.33,2.89 1.2,1.23 2.13,2.7 2.79,4.39 0.67,1.7 1,3.54 1,5.53 z m -5.18,0 c 0,-1.48 -0.19,-2.82 -0.58,-3.99 -0.4,-1.18 -0.97,-2.19 -1.7,-3.01 -0.74,-0.82 -1.64,-1.45 -2.69,-1.89 -1.06,-0.44 -2.25,-0.66 -3.58,-0.66 -1.32,0 -2.52,0.22 -3.58,0.66 -1.06,0.44 -1.96,1.07 -2.7,1.89 -0.75,0.82 -1.32,1.83 -1.72,3.01 -0.4,1.17 -0.6,2.51 -0.6,3.99 0,1.49 0.2,2.83 0.6,4 0.4,1.18 0.97,2.18 1.72,3 0.74,0.82 1.64,1.45 2.7,1.88 1.06,0.44 2.26,0.66 3.58,0.66 1.33,0 2.52,-0.22 3.58,-0.66 1.05,-0.43 1.95,-1.06 2.69,-1.88 0.73,-0.82 1.3,-1.82 1.7,-3 0.39,-1.17 0.58,-2.51 0.58,-4 z"
       style="fill:#ffffff" /><path
       id="_5_4"
       class="fil1"
       d="m 743.51,87.85 c -0.14,0.28 -0.29,0.47 -0.47,0.58 -0.18,0.11 -0.4,0.17 -0.65,0.17 -0.25,0 -0.53,-0.1 -0.85,-0.29 -0.31,-0.2 -0.68,-0.41 -1.1,-0.65 -0.43,-0.23 -0.92,-0.45 -1.49,-0.65 -0.57,-0.19 -1.24,-0.29 -2.02,-0.29 -0.7,0 -1.3,0.09 -1.82,0.26 -0.52,0.16 -0.96,0.4 -1.32,0.7 -0.35,0.3 -0.62,0.66 -0.8,1.08 -0.17,0.42 -0.26,0.88 -0.26,1.38 0,0.63 0.18,1.16 0.54,1.59 0.35,0.42 0.82,0.78 1.41,1.08 0.59,0.3 1.26,0.57 2.01,0.81 0.75,0.24 1.52,0.49 2.3,0.76 0.78,0.26 1.54,0.58 2.29,0.93 0.75,0.36 1.42,0.81 2.01,1.35 0.59,0.55 1.06,1.22 1.42,2 0.35,0.78 0.53,1.74 0.53,2.87 0,1.22 -0.21,2.36 -0.63,3.43 -0.42,1.07 -1.03,2 -1.84,2.8 -0.8,0.79 -1.79,1.42 -2.95,1.87 -1.16,0.46 -2.5,0.68 -4,0.68 -0.86,0 -1.71,-0.08 -2.55,-0.25 -0.83,-0.17 -1.63,-0.41 -2.4,-0.72 -0.77,-0.31 -1.49,-0.69 -2.16,-1.13 -0.67,-0.43 -1.27,-0.92 -1.79,-1.46 l 1.46,-2.42 c 0.14,-0.17 0.31,-0.32 0.5,-0.44 0.19,-0.11 0.41,-0.18 0.64,-0.18 0.32,0 0.65,0.13 1.02,0.39 0.36,0.26 0.79,0.54 1.28,0.85 0.5,0.31 1.08,0.6 1.75,0.86 0.67,0.25 1.47,0.38 2.4,0.38 1.44,0 2.55,-0.35 3.34,-1.03 0.79,-0.68 1.18,-1.65 1.18,-2.93 0,-0.71 -0.17,-1.29 -0.53,-1.74 -0.35,-0.45 -0.83,-0.83 -1.42,-1.14 -0.58,-0.31 -1.25,-0.56 -2,-0.78 -0.75,-0.21 -1.51,-0.44 -2.29,-0.69 -0.78,-0.25 -1.54,-0.55 -2.29,-0.9 -0.75,-0.35 -1.42,-0.81 -2,-1.37 -0.59,-0.56 -1.06,-1.27 -1.42,-2.11 -0.35,-0.84 -0.53,-1.88 -0.53,-3.12 0,-0.99 0.2,-1.95 0.59,-2.89 0.39,-0.93 0.97,-1.76 1.72,-2.49 0.76,-0.72 1.69,-1.31 2.79,-1.74 1.1,-0.44 2.35,-0.66 3.76,-0.66 1.61,0 3.08,0.25 4.43,0.76 1.35,0.5 2.5,1.2 3.45,2.11 z"
       style="fill:#ffffff" /><path
       id="_6_5"
       class="fil1"
       d="m 779.75,96.46 c 0,1.98 -0.33,3.82 -0.99,5.52 -0.66,1.69 -1.59,3.16 -2.79,4.39 -1.2,1.24 -2.65,2.21 -4.33,2.9 -1.69,0.69 -3.56,1.04 -5.61,1.04 -2.05,0 -3.92,-0.35 -5.61,-1.04 -1.7,-0.69 -3.15,-1.66 -4.35,-2.9 -1.21,-1.23 -2.15,-2.7 -2.81,-4.39 -0.66,-1.7 -0.99,-3.54 -0.99,-5.52 0,-1.99 0.33,-3.83 0.99,-5.53 0.66,-1.69 1.6,-3.16 2.81,-4.39 1.2,-1.24 2.65,-2.21 4.35,-2.9 1.69,-0.7 3.56,-1.04 5.61,-1.04 2.05,0 3.92,0.35 5.61,1.05 1.68,0.7 3.13,1.66 4.33,2.89 1.2,1.23 2.13,2.7 2.79,4.39 0.66,1.7 0.99,3.54 0.99,5.53 z m -5.17,0 c 0,-1.48 -0.19,-2.82 -0.59,-3.99 -0.39,-1.18 -0.96,-2.19 -1.7,-3.01 -0.74,-0.82 -1.63,-1.45 -2.69,-1.89 -1.05,-0.44 -2.25,-0.66 -3.57,-0.66 -1.33,0 -2.52,0.22 -3.58,0.66 -1.07,0.44 -1.97,1.07 -2.71,1.89 -0.74,0.82 -1.32,1.83 -1.72,3.01 -0.4,1.17 -0.6,2.51 -0.6,3.99 0,1.49 0.2,2.83 0.6,4 0.4,1.18 0.98,2.18 1.72,3 0.74,0.82 1.64,1.45 2.71,1.88 1.06,0.44 2.25,0.66 3.58,0.66 1.32,0 2.52,-0.22 3.57,-0.66 1.06,-0.43 1.95,-1.06 2.69,-1.88 0.74,-0.82 1.31,-1.82 1.7,-3 0.4,-1.17 0.59,-2.51 0.59,-4 z"
       style="fill:#ffffff" /><path
       id="_7_6"
       class="fil1"
       d="m 793.59,100.45 v 9.54 h -5.04 V 82.86 h 8.83 c 1.81,0 3.38,0.22 4.7,0.64 1.33,0.43 2.42,1.02 3.28,1.78 0.87,0.76 1.5,1.68 1.92,2.75 0.41,1.06 0.62,2.22 0.62,3.48 0,1.32 -0.22,2.52 -0.66,3.62 -0.44,1.1 -1.09,2.03 -1.97,2.83 -0.88,0.78 -1.97,1.4 -3.28,1.83 -1.31,0.44 -2.85,0.66 -4.61,0.66 z m 0,-3.94 h 3.79 c 0.92,0 1.73,-0.12 2.42,-0.35 0.68,-0.23 1.25,-0.56 1.7,-0.99 0.45,-0.43 0.79,-0.96 1.01,-1.58 0.23,-0.62 0.34,-1.31 0.34,-2.08 0,-0.72 -0.11,-1.38 -0.34,-1.97 -0.22,-0.58 -0.56,-1.09 -1.01,-1.5 -0.45,-0.42 -1.02,-0.73 -1.7,-0.95 -0.69,-0.22 -1.5,-0.33 -2.42,-0.33 h -3.79 z"
       style="fill:#ffffff" /><path
       id="_8_7"
       class="fil1"
       d="m 821.67,99.4 v 10.59 h -5.04 V 82.86 h 8.27 c 1.85,0 3.44,0.2 4.76,0.58 1.31,0.38 2.4,0.91 3.24,1.6 0.84,0.69 1.46,1.51 1.86,2.47 0.39,0.96 0.58,2.01 0.58,3.16 0,0.92 -0.13,1.78 -0.4,2.59 -0.27,0.81 -0.65,1.55 -1.16,2.22 -0.51,0.66 -1.13,1.25 -1.87,1.74 -0.75,0.51 -1.6,0.9 -2.55,1.2 0.64,0.37 1.19,0.89 1.65,1.56 l 6.79,10.01 h -4.54 c -0.44,0 -0.8,-0.08 -1.11,-0.26 -0.31,-0.17 -0.57,-0.42 -0.78,-0.75 l -5.7,-8.68 c -0.21,-0.32 -0.45,-0.56 -0.7,-0.69 -0.26,-0.14 -0.64,-0.21 -1.14,-0.21 z m 0,-3.64 h 3.15 c 0.95,0 1.79,-0.12 2.49,-0.35 0.71,-0.24 1.29,-0.57 1.75,-0.99 0.45,-0.42 0.79,-0.91 1.01,-1.49 0.23,-0.57 0.34,-1.2 0.34,-1.89 0,-1.38 -0.45,-2.43 -1.35,-3.17 -0.91,-0.74 -2.3,-1.11 -4.16,-1.11 h -3.23 z"
       style="fill:#ffffff" /><path
       id="_9"
       class="fil1"
       d="m 869.5,110.01 h -3.9 c -0.44,0 -0.79,-0.11 -1.07,-0.33 -0.28,-0.22 -0.49,-0.49 -0.61,-0.81 l -2.03,-5.53 h -11.23 l -2.03,5.53 c -0.1,0.29 -0.29,0.55 -0.58,0.79 -0.3,0.23 -0.66,0.35 -1.08,0.35 h -3.92 L 853.7,82.9 h 5.15 z M 851.95,99.79 h 8.65 l -3.3,-9.02 c -0.15,-0.39 -0.32,-0.87 -0.5,-1.41 -0.18,-0.55 -0.36,-1.14 -0.53,-1.77 -0.18,0.63 -0.35,1.23 -0.52,1.78 -0.17,0.55 -0.34,1.03 -0.5,1.44 z"
       style="fill:#ffffff" /></g></g>
 </g>
</svg>
